HIERARCHY
ROOT root
{
	OFFSET 0.000000 0.000000 0.000000
	CHANNELS 6 Xposition Yposition Zposition Zrotation Yrotation Xrotation
	JOINT lhip
	{
		OFFSET 0.058581 -0.082280 -0.017664
		CHANNELS 3 Zrotation Yrotation Xrotation
		JOINT lknee
		{
			OFFSET 0.043451 -0.386469 0.008037
			CHANNELS 3 Zrotation Yrotation Xrotation
			JOINT lankle
			{
				OFFSET -0.014790 -0.426874 -0.037428
				CHANNELS 3 Zrotation Yrotation Xrotation
				JOINT ltoe
				{
					OFFSET 0.041054 -0.060286 0.122042
					CHANNELS 3 Zrotation Yrotation Xrotation
					End Site
					{
						OFFSET 0.000000 0.000000 0.000000
					}
				}
			}
		}
	}
	JOINT rhip
	{
		OFFSET -0.060310 -0.090513 -0.013543
		CHANNELS 3 Zrotation Yrotation Xrotation
		JOINT rknee
		{
			OFFSET -0.043257 -0.383688 -0.004843
			CHANNELS 3 Zrotation Yrotation Xrotation
			JOINT rankle
			{
				OFFSET 0.019056 -0.420046 -0.034562
				CHANNELS 3 Zrotation Yrotation Xrotation
				JOINT rtoe
				{
					OFFSET -0.034840 -0.062106 0.130323
					CHANNELS 3 Zrotation Yrotation Xrotation
					End Site
					{
						OFFSET 0.000000 0.000000 0.000000
					}
				}
			}
		}
	}
	JOINT lowerback
	{
		OFFSET 0.004439 0.124404 -0.038385
		CHANNELS 3 Zrotation Yrotation Xrotation
		JOINT upperback
		{
			OFFSET 0.004488 0.137956 0.026820
			CHANNELS 3 Zrotation Yrotation Xrotation
			JOINT chest
			{
				OFFSET -0.002265 0.056032 0.002855
				CHANNELS 3 Zrotation Yrotation Xrotation
				JOINT lowerneck
				{
					OFFSET -0.013390 0.211636 -0.033468
					CHANNELS 3 Zrotation Yrotation Xrotation
					JOINT upperneck
					{
						OFFSET 0.010113 0.088937 0.050410
						CHANNELS 3 Zrotation Yrotation Xrotation
						End Site
						{
							OFFSET 0.000000 0.000000 0.000000
						}
					}
				}
				JOINT lclavicle
				{
					OFFSET 0.071702 0.114000 -0.018898
					CHANNELS 3 Zrotation Yrotation Xrotation
					JOINT lshoulder
					{
						OFFSET 0.122921 0.045205 -0.019046
						CHANNELS 3 Zrotation Yrotation Xrotation
						JOINT lelbow
						{
							OFFSET 0.255332 -0.015649 -0.022946
							CHANNELS 3 Zrotation Yrotation Xrotation
							JOINT lwrist
							{
								OFFSET 0.265709 0.012698 -0.007375
								CHANNELS 3 Zrotation Yrotation Xrotation
								End Site
								{
									OFFSET 0.000000 0.000000 0.000000
								}
							}
						}
					}
				}
				JOINT rclavicle
				{
					OFFSET -0.082954 0.112472 -0.023707
					CHANNELS 3 Zrotation Yrotation Xrotation
					JOINT rshoulder
					{
						OFFSET -0.113228 0.046853 -0.008472
						CHANNELS 3 Zrotation Yrotation Xrotation
						JOINT relbow
						{
							OFFSET -0.260127 -0.014369 -0.031269
							CHANNELS 3 Zrotation Yrotation Xrotation
							JOINT rwrist
							{
								OFFSET -0.269108 0.006794 -0.006027
								CHANNELS 3 Zrotation Yrotation Xrotation
								End Site
								{
									OFFSET 0.000000 0.000000 0.000000
								}
							}
						}
					}
				}
			}
		}
	}
}
MOTION
Frames: 14
Frame Time: 0.033333
1.278194 0.695337 0.983153 -87.528690 -1.048595 84.705750 -1.712874 -1.296192 -1.386446 -1.554589 -5.275615 12.748541 2.964086 12.453491 -14.735298 0.000000 -0.000000 0.000000 2.691156 -1.625250 -1.088164 -3.403594 -1.733728 12.464114 -0.287299 -12.494801 -14.098314 0.000000 -0.000000 0.000000 -1.780435 3.880782 9.196324 -0.400721 -1.914122 4.529080 -1.337902 0.239819 -1.429543 3.985060 -3.413474 -9.061556 6.707944 -7.294676 0.879378 -26.562956 -7.064366 -0.447939 -52.787616 -7.334171 15.419361 2.186077 -20.078753 5.576644 -5.735119 -3.730926 5.207835 26.515084 9.905169 -0.009747 57.328922 3.712634 18.217862 -5.820277 26.660511 6.391925 1.263091 4.111686 5.144097 
1.277499 0.695881 0.983411 -88.098336 -1.122652 84.762027 -1.647026 -1.189031 -1.311972 -1.632040 -4.969920 12.556910 2.825999 12.693530 -14.548180 0.000000 -0.000000 0.000000 2.571636 -1.105869 -1.177496 -3.231564 -1.578070 12.551763 -0.084741 -12.760321 -14.015338 0.000000 -0.000000 0.000000 -2.071939 4.151161 9.117567 -0.272469 -2.047816 4.238926 -1.190223 -0.093950 -1.251453 3.798225 -3.449191 -8.450439 6.805844 -7.364824 0.766548 -26.536316 -7.094272 -0.378325 -52.631714 -7.720526 15.477114 1.992753 -20.057503 5.207646 -5.929262 -3.810962 5.403151 26.639447 10.166474 0.199466 56.871219 3.664986 18.488705 -5.432243 26.410649 7.025894 1.951578 4.070237 5.365150 
1.276779 0.696636 0.983756 -88.680595 -1.157522 84.830533 -1.552583 -1.050071 -1.251356 -1.688490 -4.668178 12.434913 2.785433 12.915753 -14.386023 0.000000 -0.000000 0.000000 2.548506 -0.856136 -1.331831 -3.145786 -1.389126 12.724986 0.024926 -12.680975 -14.015469 0.000000 -0.000000 0.000000 -2.291005 4.088590 8.951076 -0.237963 -2.012420 4.185322 -1.148213 -0.183805 -1.340624 3.819955 -3.348936 -8.258396 6.622551 -7.400012 1.437721 -26.456180 -7.062216 -0.370972 -52.511947 -7.979690 15.514745 1.851206 -20.270815 5.253638 -5.757198 -3.890543 5.367517 26.753860 10.179268 0.505379 56.683993 3.706506 18.694110 -5.275649 26.305124 7.228995 2.152624 3.889985 5.225090 
1.275027 0.697448 0.984604 -89.542838 -1.127391 84.755759 -1.419401 -0.728813 -0.814709 -1.636565 -4.357764 12.189522 2.814379 13.186337 -14.399754 0.000000 -0.000000 0.000000 2.605501 -0.798216 -1.207687 -3.033617 -1.006617 12.842616 0.048656 -12.292911 -14.047108 0.000000 -0.000000 0.000000 -2.341893 4.181168 8.479537 -0.234342 -1.857477 4.689543 -1.210888 -0.170842 -1.551897 3.693299 -3.138496 -7.849604 6.350959 -7.332466 1.411852 -26.546541 -7.022496 -0.675440 -52.537187 -8.398037 15.329374 2.066026 -20.171403 4.527486 -6.297827 -3.313253 5.528122 26.879404 10.002031 0.633606 56.611495 3.671225 18.599038 -5.226989 26.013544 7.212657 2.411856 3.856331 5.896383 
1.276728 0.698048 0.984337 -88.719212 -0.859823 84.614973 -1.166368 -1.336834 -1.387392 -1.635962 -4.426614 13.111929 2.745404 13.159003 -14.514377 0.000000 -0.000000 0.000000 2.923486 -0.692851 -1.175576 -3.046507 -1.471899 12.920275 -0.086664 -12.840695 -14.101636 0.000000 -0.000000 0.000000 -2.217483 3.798322 9.424703 -0.092336 -2.454200 3.594721 -1.170572 -0.356226 -1.095547 3.574853 -3.108375 -7.834149 6.407690 -6.952985 1.375676 -26.381203 -7.203193 -0.674053 -52.757568 -8.867995 15.125094 2.244393 -20.245841 4.099082 -6.879359 -3.006943 4.617520 26.516523 9.945899 0.330594 56.988250 3.485466 18.728250 -5.582641 26.197187 7.245342 2.909120 3.635318 5.296314 
1.275814 0.699038 0.984320 -89.501439 -0.965641 84.531245 -1.248017 -1.029971 -0.842767 -1.542641 -4.181772 12.549489 2.796733 13.434835 -14.314882 0.000000 -0.000000 0.000000 3.000329 -0.271522 -1.113425 -3.182150 -1.318697 13.045612 -0.159013 -12.759075 -14.208437 0.000000 -0.000000 0.000000 -2.282668 3.824559 9.482788 -0.257747 -2.154566 3.531138 -1.177123 -0.324554 -1.143850 3.461068 -2.756372 -7.440190 6.485511 -6.648419 0.738654 -26.425370 -7.237229 -0.853405 -52.863358 -9.102929 14.793275 2.275151 -20.419799 3.185994 -8.619978 -2.372711 3.886721 26.433522 9.884315 0.215921 57.353634 3.150106 18.766415 -6.170955 26.509477 6.855314 4.007836 3.300358 5.071719 
1.274184 0.699334 0.984560 -89.419758 -0.917100 84.573497 -1.233045 -0.987280 -0.671205 -1.423711 -4.261063 12.403679 2.811389 13.343777 -14.379760 0.000000 -0.000000 0.000000 3.067010 -0.503754 -0.861595 -3.167805 -1.208002 12.708121 -0.116012 -12.808344 -14.309902 0.000000 -0.000000 0.000000 -2.351808 3.759136 9.192800 -0.182696 -2.394067 3.582929 -1.139970 -0.390982 -1.124766 3.331163 -2.444106 -7.436023 6.361981 -6.377327 0.173305 -26.430238 -7.115925 -1.013263 -52.847427 -9.185414 14.570986 1.915792 -21.038509 2.924863 -9.563203 -1.589900 3.396448 26.482297 9.548835 0.107925 57.364309 2.882124 18.661616 -6.561440 26.862732 6.650730 4.622149 2.864222 5.216192 
1.273467 0.699443 0.984568 -89.548924 -0.925438 84.683374 -1.354086 -1.008009 -0.638390 -1.184668 -4.150757 12.248894 2.857390 13.396774 -14.408624 0.000000 -0.000000 0.000000 3.075421 -0.350028 -0.901723 -3.172330 -1.176373 12.659919 -0.134593 -12.795388 -14.331694 0.000000 -0.000000 0.000000 -2.410927 3.745656 9.060421 -0.183256 -2.437535 3.563102 -1.112158 -0.423350 -1.150493 3.187881 -2.099937 -7.497217 6.356430 -6.138823 -0.310270 -26.206009 -7.240468 -1.029905 -52.967610 -9.328383 14.411408 1.974307 -21.454372 2.563644 -10.104476 -1.982976 3.320681 26.431044 9.561779 0.222878 57.552306 2.735511 18.324436 -7.498902 26.887542 5.775701 4.669212 3.221398 5.308647 
1.272740 0.699583 0.984685 -89.547766 -0.819526 84.875265 -1.243962 -1.084494 -0.951802 -1.185900 -4.276757 12.555034 2.900089 13.430368 -14.769966 0.000000 -0.000000 0.000000 3.164295 -0.351871 -1.064125 -3.085702 -1.204691 12.685181 -0.099307 -12.797209 -14.561279 0.000000 -0.000000 0.000000 -2.442315 3.767127 8.862173 -0.123071 -2.518916 3.665035 -1.058972 -0.462844 -1.176986 3.003968 -1.614994 -7.971325 6.430327 -5.971397 -1.066125 -26.010657 -7.384870 -1.196715 -52.971434 -9.519472 13.773942 2.299501 -20.738696 1.283709 -9.621797 -2.534652 3.200896 26.397906 9.579300 0.243346 57.608273 2.560667 17.759377 -8.383334 27.085660 4.797688 2.840140 4.215390 6.075277 
1.272244 0.699717 0.984285 -89.746712 -0.911137 85.027391 -1.379525 -1.204044 -1.286129 -1.283579 -4.303109 13.022313 3.030645 13.811268 -15.506875 0.000000 -0.000000 0.000000 3.062497 0.046268 -1.530956 -2.980658 -1.177235 13.386921 0.043081 -13.046969 -15.529589 0.000000 -0.000000 0.000000 -2.432217 3.751959 9.371269 -0.262516 -2.486922 3.387648 -1.098151 -0.563555 -1.301202 2.922502 -1.033394 -8.557249 6.674393 -5.770099 -2.164610 -25.815426 -7.690308 -1.276228 -52.450671 -9.217188 12.479749 3.659404 -19.232613 -1.588266 -9.037951 -3.022818 2.631842 26.338539 9.748871 0.378491 57.881067 2.227016 16.944625 -10.202497 27.796719 3.135532 1.015810 5.080069 6.533104 
1.271474 0.699844 0.983750 -89.810772 -0.865557 85.147423 -1.241412 -1.291938 -1.737183 -1.597045 -4.457185 13.775612 3.293192 14.061074 -16.306147 0.000000 -0.000000 0.000000 3.020339 -0.003793 -1.976567 -2.707896 -1.044957 14.123134 0.172053 -13.206447 -16.581304 0.000000 -0.000000 0.000000 -2.356314 3.839291 9.473982 -0.278674 -2.652689 3.905562 -1.126199 -0.585209 -1.472707 2.800272 -0.559757 -9.305163 6.913336 -5.423858 -3.055105 -25.772654 -7.772299 -1.380475 -51.317108 -8.684234 11.583964 4.876654 -18.955266 -3.043671 -7.523314 -2.929461 2.892730 26.584480 9.790051 0.231093 57.393805 2.200423 15.740398 -11.628586 29.165067 0.644394 -1.354254 6.409026 6.067128 
1.270088 0.699605 0.983141 -89.593834 -0.821357 85.265688 -1.109513 -1.300628 -2.257435 -1.910123 -4.662563 14.681467 3.272615 14.062691 -17.220205 0.000000 -0.000000 0.000000 2.919348 -0.249717 -2.267187 -2.485758 -1.095459 14.601965 0.152610 -13.553645 -17.472111 0.000000 -0.000000 0.000000 -2.256117 3.726917 9.906075 -0.342455 -2.842850 3.662929 -1.149338 -0.756675 -1.227748 2.985839 -0.355133 -9.991945 6.655671 -5.164885 -4.145475 -25.241050 -7.282327 -1.494643 -50.323646 -7.986369 11.008201 6.224619 -19.089985 -4.038504 -6.100372 -2.485798 2.481769 26.001946 9.513357 -0.161744 57.518533 2.223821 15.308560 -12.137493 29.974211 -0.630392 -0.923732 5.412148 3.646908 
1.267931 0.699392 0.982642 -89.792282 -0.777154 85.483529 -1.005677 -1.184280 -2.736835 -2.054362 -4.457433 15.547454 3.203426 14.099285 -18.061153 0.000000 -0.000000 0.000000 2.876320 -0.312114 -2.577151 -2.326760 -1.021983 15.074720 0.315470 -13.645013 -18.292286 0.000000 -0.000000 0.000000 -2.279228 3.766207 10.061335 -0.270620 -2.900815 3.994038 -1.121555 -0.708851 -1.256098 2.970076 0.084548 -10.630879 6.579614 -5.268857 -5.319518 -24.692638 -6.680677 -1.760938 -49.250173 -6.918811 10.359674 7.272503 -19.642073 -4.564170 -5.664485 -3.063459 3.102305 26.037035 9.505218 -0.360261 56.464146 2.207724 14.558406 -12.201337 30.535351 -0.794341 -0.973440 6.049310 4.422563 
1.265348 0.699158 0.982044 -90.089855 -0.819008 85.694059 -0.888052 -1.241104 -3.260519 -2.502467 -4.385772 16.528908 3.146186 14.528711 -19.044516 0.000000 -0.000000 0.000000 2.683264 -0.250582 -3.022702 -2.040736 -0.867261 15.910529 0.543831 -13.653134 -19.306213 0.000000 -0.000000 0.000000 -2.410003 3.974872 10.165765 -0.303977 -2.731150 4.285301 -0.976386 -0.803869 -1.052275 3.038643 0.722791 -11.117340 6.579889 -5.221518 -6.334350 -23.830410 -5.935618 -1.804937 -48.396201 -5.798203 9.726150 7.654093 -20.894936 -4.756934 -4.721217 -3.347610 2.828334 25.872058 9.520429 -0.536879 55.569721 2.300134 14.054454 -11.791045 30.492830 -0.657012 -1.915174 6.173673 4.147926 
